<svg width="163" height="37" viewBox="0 0 163 37" fill="none" xmlns="http://www.w3.org/2000/svg">
<path fill-rule="evenodd" clip-rule="evenodd" d="M13.0731 0L25.6019 12.8602L14.7582 23.8481L25.5581 34.8256C26.0485 35.3241 26.0473 36.1311 25.5553 36.6281C25.0634 37.1251 24.267 37.1238 23.7765 36.6253L12.9793 25.6506L2.14724 36.6267C1.65603 37.1244 0.859618 37.1244 0.368408 36.6267C-0.122803 36.129 -0.122803 35.322 0.368408 34.8242L11.2033 23.8453L0.388798 12.853L13.0731 0ZM12.9821 22.0428L22.0556 12.8486L13.0616 3.61663L3.9437 12.8558L12.9821 22.0428Z" fill="#FBD42C"/>
<path d="M49.5959 28.8372H53.0451C54.9387 28.8372 55.8856 27.8468 55.8856 25.8658V14.2194C55.8856 12.2385 54.9387 11.248 53.0451 11.248H49.5959C47.7248 11.248 46.7892 12.2385 46.7892 14.2194V25.8658C46.7892 27.8468 47.7248 28.8372 49.5959 28.8372ZM53.3494 31.0231H49.3254C47.7699 31.0231 46.5412 30.5791 45.6395 29.6911C44.7603 28.8031 44.3207 27.5622 44.3207 25.9683V14.1169C44.3207 12.5231 44.7603 11.2822 45.6395 10.3942C46.5412 9.50615 47.7699 9.06215 49.3254 9.06215H53.3494C54.9049 9.06215 56.1223 9.51754 57.0015 10.4283C57.9032 11.3163 58.3541 12.5458 58.3541 14.1169V25.9683C58.3541 27.5394 57.9032 28.7803 57.0015 29.6911C56.1223 30.5791 54.9049 31.0231 53.3494 31.0231Z" fill="white"/>
<path d="M70.4172 15.7905H68.5573C68.2417 15.7905 68.0839 15.6425 68.0839 15.3465V14.0828C68.0839 13.764 68.2417 13.6046 68.5573 13.6046H70.4172C70.6426 13.6046 70.7553 13.5022 70.7553 13.2972V10.36C70.7553 10.0412 70.9131 9.88185 71.2288 9.88185H72.7504C73.0435 9.88185 73.19 10.0412 73.19 10.36V13.2972C73.19 13.5022 73.314 13.6046 73.562 13.6046H77.1464C77.4846 13.6046 77.6537 13.764 77.6537 14.0828V15.3465C77.6537 15.6425 77.4846 15.7905 77.1464 15.7905H73.562C73.314 15.7905 73.19 15.8929 73.19 16.0978V25.9342C73.19 27.8695 74.182 28.8372 76.1658 28.8372H77.4846C77.8228 28.8372 77.9918 28.9966 77.9918 29.3154V30.5791C77.9918 30.8751 77.8228 31.0231 77.4846 31.0231H75.8615C74.306 31.0231 73.0661 30.5905 72.1418 29.7252C71.2175 28.8372 70.7553 27.6077 70.7553 26.0366V16.0978C70.7553 15.8929 70.6426 15.7905 70.4172 15.7905Z" fill="white"/>
<path d="M90.322 31.0231H88.8003C88.4847 31.0231 88.3269 30.8637 88.3269 30.5449V7.49108C88.3269 7.17231 88.4847 7.01292 88.8003 7.01292H90.322C90.6376 7.01292 90.7954 7.17231 90.7954 7.49108V15.4148H90.9307C91.4943 14.208 92.644 13.6046 94.3799 13.6046H96.2735C97.8065 13.6046 99.0013 14.0486 99.858 14.9366C100.715 15.8246 101.143 17.0655 101.143 18.6594V30.5449C101.143 30.8637 100.985 31.0231 100.67 31.0231H99.1478C98.8322 31.0231 98.6744 30.8637 98.6744 30.5449V18.7618C98.6744 16.7809 97.7276 15.7905 95.8339 15.7905H93.9403C92.9258 15.7905 92.1481 16.0637 91.607 16.6102C91.066 17.1566 90.7954 17.9308 90.7954 18.9326V30.5449C90.7954 30.8637 90.6376 31.0231 90.322 31.0231Z" fill="white"/>
<path d="M118.819 31.0231H117.06C115.505 31.0231 114.276 30.5791 113.375 29.6911C112.495 28.8031 112.056 27.5622 112.056 25.9683V18.6594C112.056 17.0655 112.495 15.8246 113.375 14.9366C114.276 14.0486 115.505 13.6046 117.06 13.6046H124.398C124.714 13.6046 124.872 13.764 124.872 14.0828V30.5449C124.872 30.8637 124.714 31.0231 124.398 31.0231H122.877C122.561 31.0231 122.403 30.8637 122.403 30.5449V29.2129H122.268C121.704 30.4197 120.555 31.0231 118.819 31.0231ZM122.403 25.6951V16.0978C122.403 15.8929 122.291 15.7905 122.065 15.7905H117.331C115.46 15.7905 114.524 16.7809 114.524 18.7618V25.8658C114.524 27.8468 115.46 28.8372 117.331 28.8372H119.258C120.273 28.8372 121.051 28.564 121.592 28.0175C122.133 27.4711 122.403 26.6969 122.403 25.6951Z" fill="white"/>
<path d="M138.46 31.0231H136.938C136.623 31.0231 136.465 30.8637 136.465 30.5449V7.49108C136.465 7.17231 136.623 7.01292 136.938 7.01292H138.46C138.776 7.01292 138.933 7.17231 138.933 7.49108V30.5449C138.933 30.8637 138.776 31.0231 138.46 31.0231Z" fill="white"/>
<path d="M156.947 31.0231H155.189C153.633 31.0231 152.405 30.5791 151.503 29.6911C150.624 28.8031 150.184 27.5622 150.184 25.9683V18.6594C150.184 17.0655 150.624 15.8246 151.503 14.9366C152.405 14.0486 153.633 13.6046 155.189 13.6046H162.527C162.842 13.6046 163 13.764 163 14.0828V30.5449C163 30.8637 162.842 31.0231 162.527 31.0231H161.005C160.689 31.0231 160.531 30.8637 160.531 30.5449V29.2129H160.396C159.833 30.4197 158.683 31.0231 156.947 31.0231ZM160.531 25.6951V16.0978C160.531 15.8929 160.419 15.7905 160.193 15.7905H155.459C153.588 15.7905 152.653 16.7809 152.653 18.7618V25.8658C152.653 27.8468 153.588 28.8372 155.459 28.8372H157.387C158.401 28.8372 159.179 28.564 159.72 28.0175C160.261 27.4711 160.531 26.6969 160.531 25.6951Z" fill="white"/>
</svg>
